<?xml version="1.0" encoding="UTF-8" standalone="no"?>
<!DOCTYPE svg PUBLIC "-//W3C//DTD SVG 1.1//EN" "http://www.w3.org/Graphics/SVG/1.1/DTD/svg11.dtd">
<svg version="1.1" xmlns="http://www.w3.org/2000/svg" xmlns:xlink="http://www.w3.org/1999/xlink" preserveAspectRatio="xMidYMid meet" viewBox="0 0 640 640" width="1024" height="1024"><defs><path d="M229.55 104.9L229.55 535.1L144.95 535.1L144.95 104.9L229.55 104.9Z" id="fLJV2XvPd"></path><path d="M187.25 147.2C163.91 147.2 144.95 128.25 144.95 104.9C144.95 81.56 163.91 62.61 187.25 62.61C210.6 62.61 229.55 81.56 229.55 104.9C229.55 128.25 210.6 147.2 187.25 147.2Z" id="c6yD3RSbH"></path><path d="M187.25 577.39C163.91 577.39 144.95 558.44 144.95 535.1C144.95 511.75 163.91 492.8 187.25 492.8C210.6 492.8 229.55 511.75 229.55 535.1C229.55 558.44 210.6 577.39 187.25 577.39Z" id="c272Kt8eSp"></path><path d="M315 457.7C239 457.7 177.3 396 177.3 320C177.3 244 239 182.3 315 182.3C391 182.3 452.7 244 452.7 320C452.7 396 391 457.7 315 457.7Z" id="c1o7YX9r69"></path><path d="M495.05 104.9L495.05 535.1L410.45 535.1L410.45 104.9L495.05 104.9Z" id="b19izvs8eB"></path><path d="M452.75 147.2C429.4 147.2 410.45 128.25 410.45 104.9C410.45 81.56 429.4 62.61 452.75 62.61C476.09 62.61 495.05 81.56 495.05 104.9C495.05 128.25 476.09 147.2 452.75 147.2Z" id="e1kNtISFcE"></path><path d="M452.75 577.39C429.4 577.39 410.45 558.44 410.45 535.1C410.45 511.75 429.4 492.8 452.75 492.8C476.09 492.8 495.05 511.75 495.05 535.1C495.05 558.44 476.09 577.39 452.75 577.39Z" id="b20fDSILW"></path><path d="M315 409.55C265.58 409.55 225.45 369.42 225.45 320C225.45 270.58 265.58 230.45 315 230.45C364.42 230.45 404.55 270.58 404.55 320C404.55 369.42 364.42 409.55 315 409.55Z" id="k1BO2WP2ZR"></path><path d="M315 381.2C281.22 381.2 253.8 353.78 253.8 320C253.8 286.22 281.22 258.8 315 258.8C348.78 258.8 376.2 286.22 376.2 320C376.2 353.78 348.78 381.2 315 381.2Z" id="bnbNLj2Xp"></path></defs><g><g><g><use xlink:href="#fLJV2XvPd" opacity="1" fill="#d92b2b" fill-opacity="1"></use><g><use xlink:href="#fLJV2XvPd" opacity="1" fill-opacity="0" stroke="#000000" stroke-width="1" stroke-opacity="0"></use></g></g><g><use xlink:href="#c6yD3RSbH" opacity="1" fill="#d92b2b" fill-opacity="1"></use><g><use xlink:href="#c6yD3RSbH" opacity="1" fill-opacity="0" stroke="#000000" stroke-width="1" stroke-opacity="0"></use></g></g><g><use xlink:href="#c272Kt8eSp" opacity="1" fill="#d92b2b" fill-opacity="1"></use><g><use xlink:href="#c272Kt8eSp" opacity="1" fill-opacity="0" stroke="#000000" stroke-width="1" stroke-opacity="0"></use></g></g><g><use xlink:href="#c1o7YX9r69" opacity="1" fill="#d92b2b" fill-opacity="1"></use><g><use xlink:href="#c1o7YX9r69" opacity="1" fill-opacity="0" stroke="#000000" stroke-width="1" stroke-opacity="0"></use></g></g><g><use xlink:href="#b19izvs8eB" opacity="1" fill="#d92b2b" fill-opacity="1"></use><g><use xlink:href="#b19izvs8eB" opacity="1" fill-opacity="0" stroke="#000000" stroke-width="1" stroke-opacity="0"></use></g></g><g><use xlink:href="#e1kNtISFcE" opacity="1" fill="#d92b2b" fill-opacity="1"></use><g><use xlink:href="#e1kNtISFcE" opacity="1" fill-opacity="0" stroke="#000000" stroke-width="1" stroke-opacity="0"></use></g></g><g><use xlink:href="#b20fDSILW" opacity="1" fill="#d92b2b" fill-opacity="1"></use><g><use xlink:href="#b20fDSILW" opacity="1" fill-opacity="0" stroke="#000000" stroke-width="1" stroke-opacity="0"></use></g></g><g><use xlink:href="#k1BO2WP2ZR" opacity="1" fill="#ffffff" fill-opacity="1"></use><g><use xlink:href="#k1BO2WP2ZR" opacity="1" fill-opacity="0" stroke="#000000" stroke-width="1" stroke-opacity="0"></use></g></g><g><use xlink:href="#bnbNLj2Xp" opacity="1" fill="#000000" fill-opacity="1"></use><g><use xlink:href="#bnbNLj2Xp" opacity="1" fill-opacity="0" stroke="#000000" stroke-width="1" stroke-opacity="0"></use></g></g></g></g></svg>